<mxfile host="app.diagrams.net" modified="2023-12-20T15:56:43.211Z" agent="Mozilla/5.0 (Macintosh; Intel Mac OS X 10_15_7) AppleWebKit/605.1.15 (KHTML, like Gecko) Version/17.1 Safari/605.1.15" version="22.1.11" etag="ObCT2Xnpu3cyy5jHP9Wy" type="github">
  <diagram name="Page-1" id="Gs5x6t6NOu6ACW3YqN5n">
    <mxGraphModel>
      <root>
        <mxCell id="0" />
        <mxCell id="1" parent="0" />
      </root>
    </mxGraphModel>
  </diagram>
</mxfile>
